<svg width="96" height="96" xmlns="http://www.w3.org/2000/svg" xmlns:xlink="http://www.w3.org/1999/xlink" xml:space="preserve" overflow="hidden"><g transform="translate(-366 -411)"><path d="M444.6 428.005 383.4 428.005C381.53 428.025 380.02 429.535 380 431.405L380 472.717C379.984 474.579 381.482 476.102 383.344 476.117 383.362 476.117 383.381 476.117 383.4 476.117L420.8 476.117 434.4 490.017 434.4 476.217 444.6 476.217C446.47 476.198 447.98 474.687 448 472.817L448 431.506C448.024 429.602 446.504 428.037 444.6 428.005ZM424.032 460.228C422.371 464.316 418.401 466.993 413.988 467 413.988 467 414.025 464.507 411.272 461.158 408.519 457.809 409.784 452.972 409.784 452.972 406.56 456.05 405.662 460.842 407.552 464.879 405.097 463.54 401.488 457.921 403.906 452.042 405.009 450.01 406.531 448.234 408.37 446.833 410.751 444.86 414.918 440.135 412.2 435 418.189 437.605 420.831 445.158 417.222 449.958 415.931 451.542 416.169 453.873 417.753 455.164 419.337 456.455 421.667 456.217 422.958 454.633 423.676 453.753 423.949 452.592 423.7 451.484 425.446 453.791 425.334 457.735 424.032 460.228Z" fill="#C3260C"/></g></svg>