<svg width="96" height="96" xmlns="http://www.w3.org/2000/svg" xmlns:xlink="http://www.w3.org/1999/xlink" xml:space="preserve" overflow="hidden"><g transform="translate(-157 -226)"><path d="M205 270C200 270 196 266 196 261 196 256 200 252 205 252 210 252 214 256 214 261 214 266 210 270 205 270ZM205 240C198.1 240 191.6 243.4 187.7 249.2 183.8 254.9 183 262.2 185.5 268.7L195 289.7 203.2 306.9C203.5 307.6 204.2 308 205 308 205.8 308 206.5 307.6 206.8 306.9L215 289.7 224.5 268.7C227 262.2 226.2 254.9 222.3 249.2 218.4 243.4 211.9 240 205 240Z" fill="#919ACA"/></g></svg>