<svg width="96" height="96" xmlns="http://www.w3.org/2000/svg" xmlns:xlink="http://www.w3.org/1999/xlink" xml:space="preserve" overflow="hidden"><g transform="translate(-369 -130)"><path d="M454.5 205.6 442 193.1C440.3 191.4 438 190.8 435.8 191.2L431.4 186.8C435.3 181.8 437.6 175.4 437.6 168.6 437.6 152.1 424.1 138.6 407.6 138.6 391.1 138.6 377.6 152.1 377.6 168.6 377.6 185.1 391.1 198.6 407.6 198.6 414.4 198.6 420.7 196.3 425.8 192.4L430.2 196.8C429.8 199 430.4 201.3 432.1 203L444.6 215.5C446 216.9 447.8 217.6 449.6 217.6 451.4 217.6 453.2 216.9 454.6 215.5 457.2 212.7 457.2 208.3 454.5 205.6ZM407.5 192.5C394.3 192.5 383.5 181.7 383.5 168.5 383.5 155.3 394.3 144.5 407.5 144.5 420.7 144.5 431.5 155.3 431.5 168.5 431.5 181.7 420.7 192.5 407.5 192.5Z" fill="#C3260C"/></g></svg>