<svg width="96" height="96" xmlns="http://www.w3.org/2000/svg" xmlns:xlink="http://www.w3.org/1999/xlink" xml:space="preserve" overflow="hidden"><g transform="translate(-156 -411)"><path d="M234.6 428.005 173.4 428.005C171.53 428.025 170.02 429.535 170 431.405L170 472.717C169.984 474.579 171.482 476.102 173.344 476.117 173.363 476.117 173.381 476.117 173.4 476.117L210.8 476.117 224.4 490.017 224.4 476.217 234.6 476.217C236.47 476.198 237.98 474.687 238 472.817L238 431.506C238.024 429.602 236.504 428.037 234.6 428.005ZM214.032 460.228C212.371 464.316 208.401 466.993 203.988 467 203.988 467 204.025 464.507 201.272 461.158 198.519 457.809 199.784 452.972 199.784 452.972 196.56 456.05 195.662 460.842 197.552 464.879 195.097 463.54 191.488 457.921 193.906 452.042 195.009 450.01 196.531 448.234 198.37 446.833 200.751 444.86 204.918 440.135 202.2 435 208.189 437.605 210.831 445.158 207.222 449.958 205.931 451.542 206.169 453.873 207.753 455.164 209.337 456.455 211.667 456.217 212.958 454.633 213.676 453.753 213.949 452.592 213.7 451.484 215.446 453.791 215.334 457.735 214.032 460.228Z" fill="#919ACA"/></g></svg>