<svg width="96" height="96" xmlns="http://www.w3.org/2000/svg" xmlns:xlink="http://www.w3.org/1999/xlink" xml:space="preserve" overflow="hidden"><g transform="translate(-159 -130)"><path d="M244.5 205.6 232 193.1C230.3 191.4 228 190.8 225.8 191.2L221.4 186.8C225.3 181.8 227.6 175.4 227.6 168.6 227.6 152.1 214.1 138.6 197.6 138.6 181.1 138.6 167.6 152.1 167.6 168.6 167.6 185.1 181.1 198.6 197.6 198.6 204.4 198.6 210.7 196.3 215.8 192.4L220.2 196.8C219.8 199 220.4 201.3 222.1 203L234.6 215.5C236 216.9 237.8 217.6 239.6 217.6 241.4 217.6 243.2 216.9 244.6 215.5 247.2 212.7 247.2 208.3 244.5 205.6ZM197.5 192.5C184.3 192.5 173.5 181.7 173.5 168.5 173.5 155.3 184.3 144.5 197.5 144.5 210.7 144.5 221.5 155.3 221.5 168.5 221.5 181.7 210.7 192.5 197.5 192.5Z" fill="#919ACA"/></g></svg>