<svg width="96" height="96" xmlns="http://www.w3.org/2000/svg" xmlns:xlink="http://www.w3.org/1999/xlink" xml:space="preserve" overflow="hidden"><g transform="translate(-367 -226)"><path d="M415 270C410 270 406 266 406 261 406 256 410 252 415 252 420 252 424 256 424 261 424 266 420 270 415 270ZM415 240C408.1 240 401.6 243.4 397.7 249.2 393.8 254.9 393 262.2 395.5 268.7L405 289.7 413.2 306.9C413.5 307.6 414.2 308 415 308 415.8 308 416.5 307.6 416.8 306.9L425 289.7 434.5 268.7C437 262.2 436.2 254.9 432.3 249.2 428.4 243.4 421.9 240 415 240Z" fill="#C3260C"/></g></svg>